# xmcd CD database file
#
# Track frame offsets:
#	150
#	15934
#	38101
#	59111
#
# Disc length: 1166 seconds
#
# Revision: 0
# Processed by: cddbd v1.5.1PL0 Copyright (c) Steve Scherf et al.
# Submitted via: CDex 1.51
#
DISCID=2b048c04
DTITLE=姫神 - 神々の詩
DYEAR=1998
DGENRE=Easy Listening
TTITLE0=神々の詩
TTITLE1=風の彼方
TTITLE2=森渡り
TTITLE3=火振り神事
EXTD=YEAR: 1998
EXTT0=
EXTT1=
EXTT2=
EXTT3=
PLAYORDER=
